<svg xmlns="http://www.w3.org/2000/svg" viewBox="0 0 64 64" role="img" aria-label="Gitmoot">
  <rect width="64" height="64" rx="12" fill="#2b2d38"/>
  <svg x="2" y="2" width="60" height="60" viewBox="0 0 1024 1024" aria-hidden="true">
    <path d="m644 193 2.557.457c40.704 7.54 78.262 25.81 110.784 51.265 2.377 1.831 4.83 3.55 7.284 5.278 6.8 4.92 13.093 10.443 19.375 16l2.236 1.966c6.295 5.592 12.327 11.41 18.278 17.363 1.545 1.543 3.098 3.078 4.652 4.612 5.67 5.64 10.943 11.394 15.913 17.67 1.832 2.278 3.745 4.434 5.734 6.577 5.275 5.88 9.897 12.25 14.566 18.613 1.63 2.211 3.279 4.407 4.93 6.601C865.483 359.748 877.099 382.203 883 407l.496 2.055c9.123 39.958.744 86.97-13.094 124.893-2.173 6.178-2.795 10.65-1.402 17.052l.549 2.633a417.192 417.192 0 0 0 1.951 8.43c4.532 18.918 6.768 39.582-2.813 57.375-16.574 25.169-46.574 35.65-73.136 46.664C739.214 688.562 739.214 688.562 688 720c-3.957-1.674-6.845-4.131-10-7v-2l-1.938-.25c-2.692-.66-4.502-1.45-6.937-2.688-10.017-4.55-21.622-5.171-32.125-2.062a113.84 113.84 0 0 0-8.723 3.977C626 711 626 711 623 711l-1 3h-3l-.75 1.75c-1.515 2.726-2.714 4.4-5.25 6.25-4.542-.379-8.55-1.367-12.813-2.938l-3.703-1.363c-7.808-2.945-15.593-5.955-23.379-8.96a3504.038 3504.038 0 0 0-60.482-22.686c-4.307-1.571-8.612-3.15-12.916-4.733a8264.434 8264.434 0 0 0-40.27-14.695l-2.26-.819a1973.997 1973.997 0 0 0-25.95-9.204c-77.938-26.998-77.938-26.998-95.598-61.262-12.964-29.963 2.654-65.133 13.371-93.34a665.81 665.81 0 0 1 3.279-7.937c.886-2.17.886-2.17.721-5.063l-2.238-.96c-11.345-5.22-20.694-12.206-25.782-23.919-2.65-8.436-1.887-15.409 2.02-23.308 5.743-10.885 12.54-21.239 19.052-31.673 2.739-4.414 5.412-8.866 8.073-13.327 18.338-30.678 18.338-30.678 26.91-43.68a124.536 124.536 0 0 0 4.2-7.254c3.267-5.944 7.114-11.48 10.952-17.067l2.302-3.36A3248.14 3248.14 0 0 1 405 315l1.555-2.26c6.66-9.654 13.942-18.734 21.445-27.74l1.524-1.845c9.958-12.031 20.575-23.421 32.878-33.092a160.444 160.444 0 0 0 5.907-4.946c3.77-3.248 7.74-6.142 11.816-8.992l2.269-1.588C502.247 220.745 523.269 210.183 546 202l2.132-.788C577.675 190.413 613.04 187.443 644 193Zm1 165-2.173 1.155C632.132 364.86 621.936 371.062 612 378l-1.78 1.234c-28.251 19.636-57.05 43.134-78.286 70.332-2.04 2.569-4.208 4.963-6.434 7.372C500.054 484.98 471.426 527.878 472 567c1.563 15.112 9.345 28.511 20 39 .96 1.08.96 1.08 1.938 2.184C504.967 620.27 520.284 628.268 535 635l3.266 1.54c59.373 26.817 127.46 28.65 188.249 5.746C742.493 636.025 758.129 628.153 772 618l2.367-1.73c5.845-4.42 11.27-9.283 16.633-14.27l2.023-1.824c22.722-21.377 35.215-53.364 36.97-84.13.717-24.12-5.03-49.153-14.993-71.046l-1.078-2.413c-11.377-25.307-26.597-47.525-45.485-67.837l-1.858-2.005a126.778 126.778 0 0 0-11.993-11.193C753 360 753 360 752 357c20.423.331 39.414 6.193 55.168 19.555 1.793 1.53 1.793 1.53 4.008 2.453C813 380 813 380 814 383a240.954 240.954 0 0 0 4.396 3.621C834.88 400.788 844.177 425.305 852 445c4.953-13.846-3.978-34.88-9.822-47.36-6.005-12.21-13.77-22.804-23.178-32.64l-2.04-2.266c-18.812-20.152-47.142-30.505-74.21-32.02-34.085-1.131-68.172 11.337-97.75 27.286ZM446.25 675.25c.76.255 1.522.51 2.305.774 17.487 5.874 34.803 12.208 52.12 18.562 11.67 4.28 23.361 8.508 35.051 12.736l11.232 4.065a22969.84 22969.84 0 0 0 32.667 11.804l2.62.945c3.909 1.409 7.819 2.817 11.73 4.222l3.994 1.439 3.42 1.23C604 732 604 732 606 733l-.621 1.984c-4.261 14.435-4.51 28.095 1.816 41.993C608 779 608 779 608 782h2c2.296 2.561 3 3.48 3 7l1.625.688c3.2 1.768 5.665 3.849 8.375 6.312v2l1.938.25c2.692.66 4.502 1.45 6.937 2.688 10.017 4.55 21.622 5.171 32.125 2.062a113.84 113.84 0 0 0 8.723-3.977C675 798 675 798 678 798l1-3c1.559-1.605 1.559-1.605 3.438-3.188l1.87-1.605C686 789 686 789 688 789l.375-1.813C689 785 689 785 691 782h2l.438-2.313C694 777 694 777 695 774c5.913-2.519 12.702-2.237 19-2-.602 2.967-1.493 5.027-3.223 7.504l-1.369 1.976-1.47 2.082-1.516 2.172c-7.436 10.622-15.192 20.998-22.986 31.357a6542.753 6542.753 0 0 0-6.124 8.159l-2.187 2.914c-1.4 1.867-2.795 3.737-4.188 5.61-6.295 8.447-12.757 16.76-19.244 25.06a5838.765 5838.765 0 0 0-4.58 5.87c-5.947 7.614-12.013 15.127-18.117 22.616-6.96 8.542-13.774 17.196-20.573 25.866l-4.185 5.33-1.37 1.743-2.742 3.488c-2.3 2.924-4.593 5.851-6.876 8.788-5.005 6.426-10.113 12.731-15.406 18.922-3.11 3.647-6.07 7.377-8.98 11.184-2.318 2.934-4.745 5.77-7.177 8.609-4.081 4.778-7.972 9.65-11.772 14.656-4.993 6.556-10.235 12.909-15.448 19.29a881.684 881.684 0 0 0-7.588 9.495L525 1017l-.865 1.729c-1.483 2.447-2.714 3.706-5.135 5.271-5.965 1.07-11.897.884-17.939.795-1.853-.002-3.706-.001-5.56.003-5.024.002-10.048-.04-15.072-.088-5.253-.044-10.506-.048-15.76-.056-9.944-.022-19.888-.08-29.833-.15a8920.253 8920.253 0 0 0-33.968-.152c-23.29-.073-46.579-.196-69.868-.352-.633-2.356-1.265-4.713-1.896-7.07l-.535-1.993c-1.768-6.61-3.347-13.258-4.897-19.921l-.929-3.963c-.658-2.808-1.315-5.617-1.97-8.426-1.76-7.535-3.528-15.067-5.296-22.6l-.552-2.35c-4.728-20.145-9.542-40.27-14.364-60.393l-1.967-8.213c-.445-1.858-.89-3.715-1.337-5.573-5.754-24.029-5.754-24.029-3.089-28.424a189.37 189.37 0 0 1 3.18-3.965c11.04-14.095 11.944-32 10.652-49.109a63.29 63.29 0 0 0-3-12 9691.28 9691.28 0 0 1-1.688-4.938l-.761-2.027c-.651-2.405-.642-4.555-.551-7.035l2.656-1.188C323.92 765.856 341.3 753.028 358 740l1.946-1.513c7.479-5.816 7.479-5.816 14.824-11.8C377 725 377 725 379 725l-1.277-2.379C372.225 712.08 372.225 712.08 372 706l-.148-2.293c-.467-11.573 3.648-21.007 11.398-29.457 17.281-16.563 43.636-5.548 63 1Z" fill="#FEFEFE"/>
    <path d="m817.063 672.688 3.535-.051c6.32.675 10.323 3.64 14.402 8.363 5.885 8.512 7.284 17.715 5.5 27.836-2.117 8.589-5.917 15.36-11.5 22.164l1.984 2.027C848.154 750.94 860.444 772.69 871 795l1.053 2.202C905.577 867.772 919.98 946.794 927 1024H544c.94-3.761 1.41-4.834 3.773-7.617l1.733-2.067 1.869-2.191c1.29-1.538 2.58-3.077 3.867-4.617l1.94-2.316c2.502-3.017 4.917-6.095 7.318-9.192 5.832-7.492 11.884-14.798 17.938-22.11 2.03-2.456 4.047-4.922 6.062-7.39 2.618-3.206 5.245-6.405 7.879-9.598 5.632-6.826 11.258-13.653 16.766-20.582a807.244 807.244 0 0 1 6.355-7.82c3.442-4.197 6.844-8.423 10.227-12.668a912.016 912.016 0 0 1 5.171-6.383 1113.181 1113.181 0 0 0 18.861-23.725 725.458 725.458 0 0 1 11.991-15.037 643.657 643.657 0 0 0 13.605-17.234 732.444 732.444 0 0 1 5.883-7.594C693.704 835.056 701.923 824.096 710 813l1.7-2.33c10.43-14.3 20.58-28.754 30.056-43.708 1.667-2.628 3.338-5.254 5.01-7.88l1.852-2.91L750 754l-2.42.351c-16.19 2.324-32.203 4.287-48.58 4.649l-.043-2.754c-.374-9.85-2.429-18.067-5.957-27.246 23.77-13.445 47.706-26.046 72.378-37.753 2.245-1.068 4.485-2.143 6.724-3.224 7.042-3.36 14.16-6.422 21.398-9.336l2.538-1.024c7.01-2.78 13.39-4.95 21.024-4.976Z" fill="#FEFEFE"/>
    <path d="M201.57 169.105c9.11 7.104 16.292 18.916 18.22 30.434 1.432 16.715-1.088 30.986-11.65 44.211-4.284 4.504-9.567 8.464-15.14 11.25 1.81 28.985 3.725 57.962 5.688 86.938l.173 2.559c.711 10.501 1.425 21.002 2.139 31.503 1.762-.954 3.524-1.91 5.285-2.867l2.973-1.612c3.168-1.757 6.16-3.644 9.18-5.646 5.741-3.765 11.595-7.31 17.5-10.813A452.78 452.78 0 0 0 261 339l2.453-1.566c8.918-5.974 12.964-14.955 15.137-25.196L279 310l-2.012-1.652c-5.783-4.94-9.976-9.34-12.988-16.348l-.926-2.04c-3.953-10.005-4.493-22.746-1.074-32.96 3.125-6.974 6.386-12.759 12-18l1.668-1.625c11.347-10.268 23.347-11.101 37.977-10.545 10.305.745 19.745 6.936 26.46 14.56 8.54 11.58 10.879 23.462 9.895 37.61-2.17 11.17-7.447 23.219-17 30a349.014 349.014 0 0 1-5.285 2.11c-5.7 2.195-5.7 2.195-9.66 6.65-1.43 4.265-2.027 8.684-2.682 13.121-3.036 17.246-14.95 33.799-28.928 43.783C279.727 379.26 272.88 383.65 266 388l-2.343 1.482c-3.183 2.01-6.366 4.02-9.552 6.026a1608.964 1608.964 0 0 0-18.216 11.675c-5.608 3.64-11.24 7.242-16.889 10.817l.656 2.71c3.109 13.501 3.836 24.737-3.144 37.052C215 460 215 460 212.369 462.642c-2.266 2.72-2.367 3.293-2.492 7.097.208 1.417.447 2.83.712 4.237l.37 2.344c.409 2.551.86 5.093 1.31 7.637.298 1.8.594 3.6.887 5.4.765 4.652 1.564 9.298 2.375 13.942.585 3.37 1.153 6.741 1.719 10.114 1.613 9.6 3.294 19.188 4.995 28.774.608 3.432 1.212 6.865 1.816 10.298A16985.42 16985.42 0 0 0 241 647a151646.643 151646.643 0 0 1 3.784 20.817c1.101 6.065 2.205 12.13 3.319 18.192 1.035 5.635 2.064 11.27 3.09 16.907.408 2.235.818 4.47 1.23 6.705 3.99 21.649 3.99 21.649 4.31 30.098.313 2.674 1.25 4.8 2.267 7.281v3l-1.984-.219c-11.47-1.166-21.563-.965-32.766 1.66-3.074.529-4.374.415-7.25-.441-4.878-20.476-9.415-41.006-13.737-61.606-.757-3.606-1.517-7.21-2.277-10.816l-.45-2.14a6727.7 6727.7 0 0 0-2.192-10.365 1626.214 1626.214 0 0 1-3.516-16.869l-1-4.825-.396-2.067C191.92 635.159 187.754 630.335 183 625a433.52 433.52 0 0 1-2.68-3.305c-7.628-9.422-15.932-17.163-25.949-24.039C145.805 591.673 137.383 583.15 134 573c-2.461-1.23-4.748-1.303-7.458-1.544C107.458 569.69 91.563 562.896 79 548c-5.985-8.135-9.577-16.233-12-26l-.68-2.43c-1.084-4.174-1.406-8.028-1.367-12.343l.02-2.975c.01-.743.018-1.486.027-2.252 20.806-.741 40.126 1.133 56.5 15.5 1.518 1.481 3.02 2.98 4.5 4.5l1.664 1.566c7.098 7.269 12.05 18.281 13.648 28.184 1.578 8.13 6.56 13.028 12.688 18.25 3.201 2.091 6.462 3.57 10 5 9.832 4.227 16.44 9.583 24 17l-.379-2.338a11812.468 11812.468 0 0 1-7.787-48.654 27893.01 27893.01 0 0 1-3.489-22.117c-.715-4.536-1.447-9.07-2.183-13.604a672.54 672.54 0 0 1-2.139-14.186l-.937-6.261-.36-2.85c-.67-4.663-.67-4.663-3.14-8.534-2.632-1.92-5.347-3.063-8.387-4.214-7.352-2.854-11.02-9.94-14.199-16.808-4.298-10.46-4.25-21.355-.035-31.832 3.122-6.834 7.604-13.883 14.138-17.892 2.123-1.563 2.123-1.563 2.329-4.107l-.109-2.865-.11-3.26a639.433 639.433 0 0 0-1.385-18.283l-.371-4.285a5408.11 5408.11 0 0 0-.793-9.082 9655.37 9655.37 0 0 1-2.066-23.887l-.208-2.423c-1.547-18.061-2.898-36.134-4.184-54.215a2541.551 2541.551 0 0 1-.636-8.977A573.508 573.508 0 0 0 151 264l-.193-2.332c-.316-4.354-.316-4.354-2.994-7.629L145 252.625c-11.62-6.692-17.815-16.546-21.809-29.184-3.609-15.159-.64-29.63 7.13-42.945 6.584-9.785 17.28-17.109 28.73-20.059 15.348-2.276 29.537-.269 42.52 8.668Zm-42.882 26.083c-4.141 4.333-6.338 8.361-7.188 14.312 1.01 7.068 4.1 11.934 9.715 16.309 4.518 3.015 8.404 3.635 13.773 2.714 6.667-1.734 10.38-5.27 13.907-11.027 2.207-4.985 1.916-9.513.507-14.695-2.422-5.914-6.829-8.965-12.402-11.801-6.65-2.355-12.708.487-18.313 4.188ZM293 262c-3.297 4.726-3.905 9.397-3 15 2.702 5.304 6.295 9.098 12 11 5.49.646 8.766-.388 13.2-3.453 4.094-3.518 5.592-7.091 6.363-12.485-.264-4.832-2.505-8.416-5.563-12.062-7.849-6.239-15.686-3.851-23 2ZM275 765c11.915 8.996 18.747 22.346 21 37 .284 3.63.334 7.235.313 10.875l-.015 2.944c-.111 6.78-.641 12.872-3.298 19.181l-1.031 2.52c-6.922 15.222-18.75 24.979-34.004 31.07-5.24 1.949-10.393 2.987-15.965 3.41l-2.656.21c-16.144.618-30.797-4.667-43.09-15.007-11.16-10.908-16.21-24.923-16.546-40.27-.074-9.315.612-17.233 4.292-25.933l1.098-2.66c7-15.353 19.277-25.485 34.902-31.34 18.45-5.737 39.243-3.096 55 8ZM281 870c1.155 4.596 2.309 9.192 3.46 13.788l1.167 4.643c7.01 27.885 13.585 55.867 20.019 83.889 1.09 4.742 2.186 9.483 3.285 14.224.854 3.694 1.703 7.39 2.55 11.085.403 1.751.807 3.502 1.214 5.252.564 2.425 1.119 4.852 1.672 7.279l.505 2.148c.928 4.12 1.128 7.367 1.128 11.692h-48c-4.75-23.673-4.75-23.673-6.816-33.984l-4.186-20.877c-8.943-44.54-8.943-44.54-12.257-61.914-.375-1.96-.755-3.92-1.136-5.88-1.042-5.531-1.914-10.712-1.605-16.345l2.938-.594c11.093-2.413 22.218-6.131 31.328-13.152C278 870 278 870 281 870ZM665.625 722.563c8.562 5.024 13.888 11.09 17.375 20.437.663 3.864.703 7.587.625 11.5l.059 2.934c-.06 8.815-2.958 15.682-8.746 22.316-7.879 7.102-16.155 10.14-26.636 9.963-8.727-.527-15.78-4.14-22.24-9.963-6.681-7.657-8.887-15.22-8.687-25.25l-.059-2.934c.06-8.815 2.958-15.682 8.746-22.316 11.125-10.029 25.82-13.077 39.563-6.688ZM753.05 471.875c8.727 4.996 11.397 11.533 14.153 20.941 3.471 13.867 3.968 31.843-2.527 44.832-3.567 5.786-7.31 9.4-13.989 11.29-5.669.096-10.157-.95-14.675-4.5-10.175-10.459-10.4-25.591-10.227-39.301.332-11.163 2.447-22.513 10.715-30.575 5.267-3.292 10.458-5.287 16.55-2.687ZM595.813 474.125C603.323 480.564 606.6 488.299 608 498c.235 4.227.23 8.454.25 12.688l.063 3.396c.047 10.174-1.349 22.768-8.833 30.482-5.252 4.486-8.748 4.796-15.503 4.7-5.012-.448-7.362-2.38-10.559-6.114-9.764-13.09-9.004-31.566-6.879-47.09.65-2.797 1.423-5.387 2.461-8.062l.844-2.273c2.21-5.127 5.529-8.624 10.156-11.727 5.142-1.714 10.748-1.9 15.813.125Z" fill="#FFF"/>
    <path d="M139 586c-.41 9.428-6.107 16.951-12.813 23.25-9.423 7.538-22.24 10.912-34.187 9.75-2.81-.544-5.294-1.153-8-2l-3.129-.883-3.308-.992-3.122-.93C72 613 72 613 71.004 611.156c-.013-7.195 7.81-14.874 12.441-19.824C98.682 577.423 121.174 575.882 139 586ZM644 548c1.34 1.173 2.678 2.35 3.996 3.547 6.683 4.846 14.733 7.097 22.879 6.015 6.485-1.396 11.708-3.49 16.75-7.812C690 548 690 548 693.063 547.5c2.937.5 2.937.5 5.312 2.125 2.125 3.105 2.229 4.676 1.625 8.375-1.688 2.813-1.688 2.813-4 5-1.658.373-3.326.707-5 1a181.008 181.008 0 0 0-4 4c-9.653 4.782-23.877 5.246-34 2-7.652-3.102-14.178-6.077-19-13 0-3.75 0-3.75 1-7 3.541-2.36 4.828-2.573 9-2Z" fill="#FFF"/>
  </svg>
</svg>
